<svg xmlns="http://www.w3.org/2000/svg" version="1.1" xmlns:xlink="http://www.w3.org/1999/xlink" width="1500" height="1500" viewBox="0 0 1500 1500"><rect width="1500" height="1500" x="0" y="0" id="background" stroke="transparent" fill="#fefbfa"></rect><svg xml:space="preserve" width="1000" height="1000" data-version="2" data-id="lg_o9PbxsUGUKQf4ewOKp" viewBox="0 0 571 331" x="250" y="250"><rect width="100%" height="100%" fill="transparent"></rect><rect width="256" height="331.09" x="-128" y="-165.545" fill="none" rx="0" ry="0" transform="translate(443.5 166)"></rect><path fill="#d90c00" d="m401.44 142.1 71.78-86.14h80.28l-72.37 82.92 73.84 118.66h-76.48l-41.89-73.83-35.16 28.71v45.12h-64.76V55.96h64.76zm-165.454 13.6a20.876 20.876 0 0 0-20.57 17.476h-6.868c-3.06 0-5.984-1.36-7.956-3.74l-11.118-13.532a18.36 18.36 0 0 0-14.144-6.63h-10.132v-26.622a16.762 16.762 0 0 0-16.762-16.728H131.98v-3.91c0-1.972.782-3.842 2.176-5.236l12.818-12.886c1.394-1.36 3.332-2.176 5.27-2.176h19.21a20.876 20.876 0 1 0 0-6.8h-19.21c-3.74 0-7.412 1.53-10.064 4.182l-12.852 12.886a14.28 14.28 0 0 0-4.148 10.03v3.876h-14.144V94.194a19.38 19.38 0 0 0-5.678-13.77L86.25 61.282a19.72 19.72 0 0 0-13.804-5.746h-31.11a20.876 20.876 0 1 0 0 6.8h31.11c3.366 0 6.63 1.36 9.01 3.74l19.04 19.142a12.58 12.58 0 0 1 3.74 8.976v11.696h-18.02a16.762 16.762 0 0 0-16.728 16.762v10.778H59.424c-4.624 0-9.078 1.7-12.512 4.828l-18.394 16.728a18.7 18.7 0 0 0-6.12 13.804v39.168a20.91 20.91 0 1 0 6.8.34v-39.474c0-3.332 1.428-6.528 3.876-8.772l18.394-16.728a11.9 11.9 0 0 1 7.956-3.06h10.064v44.642c0 9.248 7.48 16.728 16.728 16.728H109.2v37.4a20.876 20.876 0 1 0 6.8 0v-37.4h32.436c9.18 0 16.66-7.446 16.728-16.626q.442.17.918.204h4.828c2.38 0 4.726 1.02 6.358 2.822l21.08 22.848a20.91 20.91 0 1 0 5.27-4.318l-21.352-23.12a15.3 15.3 0 0 0-11.356-5.032h-4.794q-.51.034-.884.17v-22.474h10.132c3.468 0 6.698 1.496 8.908 4.182l11.118 13.43a17 17 0 0 0 13.192 6.222h6.868a20.876 20.876 0 1 0 20.57-24.242m-43.996-91.426a14.076 14.076 0 1 1-14.042 14.382l.034-.306-.034-.306a14.076 14.076 0 0 1 14.042-13.77M20.766 73.046a14.076 14.076 0 1 1 0-28.152 14.076 14.076 0 0 1 0 28.152m17.986 155.686a14.093 14.093 0 0 1-28.186-.034 14.093 14.093 0 1 1 28.186 0m87.924 30.906a14.11 14.11 0 0 1-28.22-.034 14.11 14.11 0 0 1 28.22 0m101.32-34.952a14.076 14.076 0 0 1-28.118 0 13.6 13.6 0 0 1 4.454-10.2q.68-.238 1.258-.748.34-.34.578-.748 3.4-2.312 7.786-2.38a14.076 14.076 0 0 1 14.076 14.076m-69.598-39.78a9.962 9.962 0 0 1-9.962 9.928H86.216a9.962 9.962 0 0 1-9.928-9.928v-62.22a9.962 9.962 0 0 1 9.928-9.928h62.22a9.962 9.962 0 0 1 9.962 9.928zm77.588 5.712a14.11 14.11 0 1 1 .034-28.186 14.11 14.11 0 0 1 0 28.22"></path><path fill="#d90c00" d="M90.84 127.48h10.2v10.2h-10.2zm21.284 0h10.2v10.2h-10.2zm0 21.216h10.2v10.2h-10.2zm21.488 0h10.2v10.2h-10.2zM90.84 169.674h10.2v10.2h-10.2zm42.772 0h10.2v10.2h-10.2z"></path></svg></svg>